<svg id="visual" viewBox="0 0 960 540" width="100%" xmlns="http://www.w3.org/2000/svg" xmlns:xlink="http://www.w3.org/1999/xlink" version="1.1"><rect x="0" y="0" width="960" height="540" fill="#FFFFFF"></rect><defs><linearGradient id="grad1_0" x1="43.8%" y1="0%" x2="100%" y2="100%"><stop offset="14.444444444444446%" stop-color="#fcaf3c" stop-opacity="1"></stop><stop offset="85.55555555555554%" stop-color="#fcaf3c" stop-opacity="1"></stop></linearGradient></defs><defs><linearGradient id="grad1_1" x1="43.8%" y1="0%" x2="100%" y2="100%"><stop offset="14.444444444444446%" stop-color="#fcaf3c" stop-opacity="1"></stop><stop offset="85.55555555555554%" stop-color="#ffd69f" stop-opacity="1"></stop></linearGradient></defs><defs><linearGradient id="grad1_2" x1="43.8%" y1="0%" x2="100%" y2="100%"><stop offset="14.444444444444446%" stop-color="#ffffff" stop-opacity="1"></stop><stop offset="85.55555555555554%" stop-color="#ffd69f" stop-opacity="1"></stop></linearGradient></defs><defs><linearGradient id="grad2_0" x1="0%" y1="0%" x2="56.3%" y2="100%"><stop offset="14.444444444444446%" stop-color="#fcaf3c" stop-opacity="1"></stop><stop offset="85.55555555555554%" stop-color="#fcaf3c" stop-opacity="1"></stop></linearGradient></defs><defs><linearGradient id="grad2_1" x1="0%" y1="0%" x2="56.3%" y2="100%"><stop offset="14.444444444444446%" stop-color="#ffd69f" stop-opacity="1"></stop><stop offset="85.55555555555554%" stop-color="#fcaf3c" stop-opacity="1"></stop></linearGradient></defs><defs><linearGradient id="grad2_2" x1="0%" y1="0%" x2="56.3%" y2="100%"><stop offset="14.444444444444446%" stop-color="#ffd69f" stop-opacity="1"></stop><stop offset="85.55555555555554%" stop-color="#ffffff" stop-opacity="1"></stop></linearGradient></defs><g transform="translate(960, 0)"><path d="M0 486C-62.7 478.6 -125.5 471.2 -186 449C-246.5 426.8 -304.8 389.8 -340.1 340.1C-375.5 290.4 -387.9 228 -408.4 169.1C-428.8 110.3 -457.4 55.2 -486 0L0 0Z" fill="#ffeacf"></path><path d="M0 324C-41.8 319.1 -83.6 314.1 -124 299.3C-164.3 284.5 -203.2 259.9 -226.7 226.7C-250.3 193.6 -258.6 152 -272.2 112.8C-285.9 73.6 -304.9 36.8 -324 0L0 0Z" fill="#ffc270"></path><path d="M0 162C-20.9 159.5 -41.8 157.1 -62 149.7C-82.2 142.3 -101.6 129.9 -113.4 113.4C-125.2 96.8 -129.3 76 -136.1 56.4C-142.9 36.8 -152.5 18.4 -162 0L0 0Z" fill="#fcaf3c"></path></g><g transform="translate(0, 540)"><path d="M0 -486C51.3 -442.8 102.6 -399.7 155 -374.2C207.3 -348.6 260.7 -340.8 314 -314C367.2 -287.2 420.4 -241.5 449 -186C477.7 -130.5 481.8 -65.3 486 0L0 0Z" fill="#ffeacf"></path><path d="M0 -324C34.2 -295.2 68.4 -266.5 103.3 -249.4C138.2 -232.4 173.8 -227.2 209.3 -209.3C244.8 -191.4 280.2 -161 299.3 -124C318.4 -87 321.2 -43.5 324 0L0 0Z" fill="#ffc270"></path><path d="M0 -162C17.1 -147.6 34.2 -133.2 51.7 -124.7C69.1 -116.2 86.9 -113.6 104.7 -104.7C122.4 -95.7 140.1 -80.5 149.7 -62C159.2 -43.5 160.6 -21.8 162 0L0 0Z" fill="#fcaf3c"></path></g></svg>